<svg xmlns="http://www.w3.org/2000/svg" width="21.876" height="21.812" viewBox="0 0 21.876 21.812">
  <metadata><?xpacket begin="﻿" id="W5M0MpCehiHzreSzNTczkc9d"?>
<x:xmpmeta xmlns:x="adobe:ns:meta/" x:xmptk="Adobe XMP Core 5.6-c138 79.159824, 2016/09/14-01:09:01        ">
   <rdf:RDF xmlns:rdf="http://www.w3.org/1999/02/22-rdf-syntax-ns#">
      <rdf:Description rdf:about=""/>
   </rdf:RDF>
</x:xmpmeta>
                                                                                                    
                                                                                                    
                                                                                                    
                                                                                                    
                                                                                                    
                                                                                                    
                                                                                                    
                                                                                                    
                                                                                                    
                                                                                                    
                                                                                                    
                                                                                                    
                                                                                                    
                                                                                                    
                                                                                                    
                                                                                                    
                                                                                                    
                                                                                                    
                                                                                                    
                                                                                                    
                           
<?xpacket end="w"?></metadata>
<defs>
    <style>
      .cls-1 {
        fill: #fff;
        fill-rule: evenodd;
      }
    </style>
  </defs>
  <path id="PICTO_linkedin" data-name="PICTO linkedin" class="cls-1" d="M739.661,693.6h-4.386a0.353,0.353,0,0,0-.353.353v14.115a0.353,0.353,0,0,0,.353.353h4.386a0.353,0.353,0,0,0,.353-0.353V693.951A0.353,0.353,0,0,0,739.661,693.6Zm-2.192-7.017a2.9,2.9,0,1,0,2.893,2.9A2.9,2.9,0,0,0,737.469,686.581Zm13.349,6.666a5.149,5.149,0,0,0-3.854,1.621v-0.917a0.352,0.352,0,0,0-.352-0.353h-4.2a0.352,0.352,0,0,0-.352.353v14.115a0.352,0.352,0,0,0,.352.353h4.377a0.352,0.352,0,0,0,.352-0.353v-6.984c0-2.353.639-3.27,2.276-3.27,1.784,0,1.926,1.47,1.926,3.391v6.863a0.352,0.352,0,0,0,.352.353h4.379a0.353,0.353,0,0,0,.352-0.353v-7.742C756.425,696.824,755.759,693.247,750.818,693.247Z" transform="translate(-734.562 -686.594)"/>
</svg>
