<?xml version="1.0" encoding="utf-8"?>
<!-- Generator: Adobe Illustrator 19.2.1, SVG Export Plug-In . SVG Version: 6.00 Build 0)  -->
<svg version="1.1" id="Calque_1" xmlns="http://www.w3.org/2000/svg" xmlns:xlink="http://www.w3.org/1999/xlink" x="0px" y="0px"
	 viewBox="0 0 21.9 21.8" style="enable-background:new 0 0 21.9 21.8;" xml:space="preserve">
<style type="text/css">
	.st0{fill:#17B7EC;}
</style>
<path id="PICTO_linkedin" class="st0" d="M5.1,7H0.7C0.5,7,0.4,7.2,0.4,7.4v0v14.1c0,0.2,0.2,0.4,0.4,0.4h0h4.4
	c0.2,0,0.4-0.2,0.4-0.4v0V7.4C5.5,7.2,5.3,7,5.1,7z M2.9,0C1.3,0,0,1.3,0,2.9s1.3,2.9,2.9,2.9s2.9-1.3,2.9-2.9c0,0,0,0,0,0
	C5.8,1.3,4.5,0,2.9,0L2.9,0z M16.3,6.7c-1.5,0-2.9,0.6-3.9,1.6V7.4c0-0.2-0.2-0.4-0.4-0.4c0,0,0,0,0,0H7.8C7.7,7,7.5,7.2,7.5,7.4
	c0,0,0,0,0,0v14.1c0,0.2,0.2,0.4,0.4,0.4c0,0,0,0,0,0h4.4c0.2,0,0.4-0.2,0.4-0.4c0,0,0,0,0,0v-7c0-2.4,0.6-3.3,2.3-3.3
	c1.8,0,1.9,1.5,1.9,3.4v6.9c0,0.2,0.2,0.4,0.4,0.4c0,0,0,0,0,0h4.4c0.2,0,0.4-0.2,0.4-0.4v-7.7C21.9,10.2,21.2,6.7,16.3,6.7
	L16.3,6.7z"/>
</svg>
