<?xml version="1.0" encoding="utf-8"?>
<!-- Generator: Adobe Illustrator 19.2.1, SVG Export Plug-In . SVG Version: 6.00 Build 0)  -->
<svg version="1.1" id="Calque_1" xmlns="http://www.w3.org/2000/svg" xmlns:xlink="http://www.w3.org/1999/xlink" x="0px" y="0px"
	 viewBox="0 0 22.1 18.1" style="enable-background:new 0 0 22.1 18.1;" xml:space="preserve">
<style type="text/css">
	.st0{fill:#FFFFFF;}
</style>
<path id="_-_" class="st0" d="M5.5,8.1h8.7l-1.9-2c-0.4-0.3-0.4-0.9,0-1.3c0,0,0,0,0,0c0.4-0.4,1-0.4,1.4,0l3.6,3.6
	c0.4,0.3,0.4,0.9,0,1.3c0,0,0,0,0,0l-3.6,3.6c-0.4,0.4-1,0.4-1.4,0c-0.4-0.3-0.4-0.9,0-1.3c0,0,0,0,0,0l1.9-2H5.5
	c-0.5,0-1-0.4-1-0.9C4.5,8.6,4.9,8.1,5.5,8.1C5.5,8.1,5.5,8.1,5.5,8.1z"/>
</svg>
