<?xml version="1.0" encoding="UTF-8"?>
<svg width="875px" height="128px" viewBox="0 0 875 128" version="1.1" xmlns="http://www.w3.org/2000/svg" xmlns:xlink="http://www.w3.org/1999/xlink" xmlns:sketch="http://www.bohemiancoding.com/sketch/ns">
    <!-- Generator: Sketch 3.4.1 (15681) - http://www.bohemiancoding.com/sketch -->
    <title>logo-linkomatic</title>
    <desc>Created with Sketch.</desc>
    <defs></defs>
    <g id="Page-1" stroke="none" stroke-width="1" fill="none" fill-rule="evenodd" sketch:type="MSPage">
        <g id="logo-linkomatic" sketch:type="MSLayerGroup" fill="#FFFFFF">
            <g id="Group" transform="translate(146.000000, 0.000000)" sketch:type="MSShapeGroup">
                <path d="M23.3,6.3 L15.1,6.3 L15.1,27.8 L8.9,27.8 L8.9,6.3 L0.7,6.3 L0.7,0.8 L23.4,0.8 L23.4,6.3 L23.3,6.3 Z" id="Shape"></path>
                <path d="M68.6,0.9 L68.6,27.9 L62.4,27.9 L62.4,16.8 L51.6,16.8 L51.6,27.9 L45.4,27.9 L45.4,0.9 L51.6,0.9 L51.6,11.4 L62.4,11.4 L62.4,0.9 L68.6,0.9 L68.6,0.9 Z" id="Shape"></path>
                <path d="M111.7,22.4 L111.7,27.9 L92.7,27.9 L92.7,0.9 L111.3,0.9 L111.3,6.4 L99,6.4 L99,11.6 L109.6,11.6 L109.6,16.7 L99,16.7 L99,22.4 L111.7,22.4 L111.7,22.4 Z" id="Shape"></path>
                <path d="M165,0.9 L171.3,20.1 L177.6,0.9 L184.2,0.9 L174,27.9 L168.8,27.9 L158.5,0.9 L165,0.9 L165,0.9 Z" id="Shape"></path>
                <path d="M224.6,22.4 L224.6,27.9 L205.6,27.9 L205.6,0.9 L224.2,0.9 L224.2,6.4 L211.8,6.4 L211.8,11.6 L222.4,11.6 L222.4,16.7 L211.8,16.7 L211.8,22.4 L224.6,22.4 L224.6,22.4 Z" id="Shape"></path>
                <path d="M247.4,27.8 L247.4,0.8 L259.6,0.8 C260.9,0.8 262,1.1 263.1,1.6 C264.2,2.1 265.1,2.8 265.9,3.7 C266.7,4.6 267.3,5.5 267.7,6.6 C268.1,7.7 268.4,8.8 268.4,9.9 C268.4,10.7 268.3,11.5 268.1,12.3 C267.9,13.1 267.6,13.8 267.2,14.5 C266.8,15.2 266.4,15.8 265.8,16.3 C265.3,16.8 264.6,17.3 264,17.7 L269.9,27.7 L262.9,27.7 L257.7,19 L253.6,19 L253.6,27.7 L247.4,27.7 L247.4,27.8 Z M253.7,13.7 L259.4,13.7 C260.1,13.7 260.8,13.4 261.3,12.7 C261.8,12 262.1,11.1 262.1,10 C262.1,8.9 261.8,8 261.2,7.3 C260.6,6.6 259.9,6.3 259.2,6.3 L253.7,6.3 L253.7,13.7 L253.7,13.7 Z" id="Shape"></path>
                <path d="M295.2,0.9 L301,13.3 L306.9,0.9 L313.7,0.9 L304.1,18.7 L304.1,27.9 L297.9,27.9 L297.9,18.6 L288.4,0.9 L295.2,0.9 L295.2,0.9 Z" id="Shape"></path>
                <path d="M373.4,22.5 C374.5,22.5 375.4,22.3 376.1,21.8 C376.8,21.4 377.4,20.8 377.9,20 C378.4,19.3 378.7,18.4 378.9,17.5 C379.1,16.5 379.2,15.6 379.2,14.6 L379.2,0.9 L385.4,0.9 L385.4,14.7 C385.4,16.6 385.2,18.3 384.7,19.9 C384.2,21.5 383.5,22.9 382.5,24.2 C381.5,25.4 380.3,26.4 378.8,27.1 C377.3,27.8 375.5,28.1 373.4,28.1 C371.2,28.1 369.4,27.7 367.9,27 C366.4,26.3 365.1,25.3 364.2,24.1 C363.2,22.9 362.6,21.4 362.1,19.8 C361.7,18.2 361.4,16.5 361.4,14.7 L361.4,0.9 L367.6,0.9 L367.6,14.7 C367.6,15.7 367.7,16.7 367.9,17.7 C368.1,18.6 368.4,19.5 368.9,20.2 C369.4,20.9 369.9,21.5 370.7,21.9 C371.5,22.3 372.3,22.5 373.4,22.5 L373.4,22.5 Z" id="Shape"></path>
                <path d="M407.7,23.2 L421.8,6.4 L408.3,6.4 L408.3,0.9 L429,0.9 L429,5.6 L415.6,22.4 L429,22.4 L429,27.9 L407.6,27.9 L407.6,23.2 L407.7,23.2 Z" id="Shape"></path>
                <path d="M451.9,27.8 L451.9,0.8 L470.2,0.8 L470.2,6.3 L458.1,6.3 L458.1,12.1 L468.1,12.1 L468.1,17.2 L458.1,17.2 L458.1,27.8 L451.9,27.8 L451.9,27.8 Z" id="Shape"></path>
                <path d="M504.1,22.5 C505.2,22.5 506.1,22.3 506.8,21.8 C507.5,21.3 508.1,20.8 508.6,20 C509.1,19.3 509.4,18.4 509.6,17.5 C509.8,16.5 509.9,15.6 509.9,14.6 L509.9,0.9 L516.1,0.9 L516.1,14.7 C516.1,16.6 515.9,18.3 515.4,19.9 C514.9,21.5 514.2,22.9 513.2,24.2 C512.2,25.4 511,26.4 509.5,27.1 C508,27.8 506.2,28.1 504.1,28.1 C501.9,28.1 500.1,27.7 498.6,27 C497.1,26.3 495.8,25.3 494.9,24.1 C493.9,22.9 493.3,21.4 492.8,19.8 C492.4,18.2 492.1,16.5 492.1,14.7 L492.1,0.9 L498.3,0.9 L498.3,14.7 C498.3,15.7 498.4,16.7 498.6,17.7 C498.8,18.6 499.1,19.5 499.6,20.2 C500.1,20.9 500.6,21.5 501.4,21.9 C502.2,22.3 503.1,22.5 504.1,22.5 L504.1,22.5 Z" id="Shape"></path>
                <path d="M539.9,27.8 L539.9,0.8 L546.1,0.8 L546.1,22.3 L559.2,22.3 L559.2,27.8 L539.9,27.8 L539.9,27.8 Z" id="Shape"></path>
            </g>
            <path d="M0.2,127.5 L0.2,46.5 L22.4,46.5 L22.4,108.1 L59.1,108.1 L59.1,127.5 L0.2,127.5 L0.2,127.5 Z" id="Shape" sketch:type="MSShapeGroup"></path>
            <path d="M78.3,127.5 L78.3,46.5 L100.5,46.5 L100.5,127.4 L78.3,127.4 L78.3,127.5 Z" id="Shape" sketch:type="MSShapeGroup"></path>
            <path d="M148.1,87.7 L148.1,127.5 L125.9,127.5 L125.9,46.5 L143.2,46.5 L175.7,87.7 L175.7,46.5 L197.9,46.5 L197.9,127.4 L180.2,127.4 L148.1,87.7 L148.1,87.7 Z" id="Shape" sketch:type="MSShapeGroup"></path>
            <path d="M223.2,127.5 L223.2,46.5 L245.4,46.5 L245.4,77.3 L270,46.5 L295.1,46.5 L265.7,82.8 L297.2,127.5 L271.7,127.5 L251.6,97.7 L245.4,104.1 L245.4,127.5 L223.2,127.5 L223.2,127.5 Z" id="Shape" sketch:type="MSShapeGroup"></path>
            <path d="M308.4,95.4 L308.4,78.6 L331,78.6 L331,95.4 L308.4,95.4 L308.4,95.4 Z" id="Shape" sketch:type="MSShapeGroup"></path>
            <path d="M387.6,128 C381.4,128 375.9,126.8 370.8,124.5 C365.8,122.1 361.5,119 357.9,115.2 C354.3,111.4 351.6,107 349.6,102 C347.6,97.1 346.6,92 346.6,86.7 C346.6,81.4 347.6,76.3 349.7,71.3 C351.8,66.4 354.6,62 358.3,58.2 C362,54.4 366.4,51.4 371.4,49.2 C376.5,47 382,45.8 388,45.8 C394.2,45.8 399.7,47 404.8,49.3 C409.8,51.7 414.1,54.8 417.7,58.6 C421.3,62.5 424,66.9 426,71.8 C427.9,76.7 428.9,81.8 428.9,87 C428.9,92.3 427.9,97.4 425.8,102.3 C423.7,107.2 420.9,111.5 417.3,115.3 C413.7,119.1 409.3,122.1 404.2,124.4 C399.1,126.9 393.6,128 387.6,128 L387.6,128 Z M369.2,87 C369.2,89.7 369.6,92.4 370.3,94.9 C371.1,97.4 372.2,99.7 373.7,101.7 C375.2,103.7 377.1,105.3 379.5,106.5 C381.8,107.7 384.6,108.3 387.8,108.3 C391,108.3 393.8,107.7 396.1,106.4 C398.5,105.1 400.4,103.5 401.9,101.5 C403.4,99.5 404.5,97.2 405.2,94.6 C405.9,92 406.3,89.4 406.3,86.7 C406.3,84 405.9,81.3 405.2,78.8 C404.4,76.3 403.3,74 401.7,72.1 C400.1,70.2 398.2,68.6 395.9,67.4 C393.6,66.2 390.9,65.6 387.7,65.6 C384.5,65.6 381.8,66.2 379.4,67.4 C377.1,68.6 375.2,70.2 373.6,72.2 C372.1,74.2 371,76.5 370.2,79 C369.6,81.7 369.2,84.3 369.2,87 L369.2,87 Z" id="Shape" sketch:type="MSShapeGroup"></path>
            <path d="M546.4,127.5 L546.4,84.9 L532.8,114.9 L521,114.9 L507.4,84.9 L507.4,127.5 L485.2,127.5 L485.2,46.5 L509.5,46.5 L526.9,84.6 L544.5,46.5 L568.7,46.5 L568.7,127.4 L546.4,127.4 L546.4,127.5 Z" id="Shape" sketch:type="MSShapeGroup"></path>
            <path d="M614.9,46.5 L635.2,46.5 L663.2,127.4 L640.6,127.4 L635.7,111.6 L614.2,111.6 L609.4,127.4 L586.7,127.4 L614.9,46.5 L614.9,46.5 Z M632.3,96.8 L625.1,71.7 L617.6,96.8 L632.3,96.8 L632.3,96.8 Z" id="Shape" sketch:type="MSShapeGroup"></path>
            <path d="M737,65.9 L713.7,65.9 L713.7,127.5 L691.5,127.5 L691.5,65.9 L668.1,65.9 L668.1,46.5 L737,46.5 L737,65.9 L737,65.9 Z" id="Shape" sketch:type="MSShapeGroup"></path>
            <path d="M756.5,127.5 L756.5,46.5 L778.7,46.5 L778.7,127.4 L756.5,127.4 L756.5,127.5 Z" id="Shape" sketch:type="MSShapeGroup"></path>
            <path d="M799.6,86.2 C799.6,81.3 800.5,76.4 802.4,71.6 C804.3,66.8 807,62.5 810.6,58.7 C814.2,54.9 818.5,51.8 823.6,49.5 C828.7,47.1 834.5,46 841,46 C848.8,46 855.6,47.6 861.3,50.8 C867,54 871.3,58.3 874.1,63.6 L857.1,75.7 C856.3,73.7 855.3,72.1 854.1,70.8 C852.8,69.5 851.5,68.5 849.9,67.7 C848.4,66.9 846.8,66.4 845.2,66.1 C843.6,65.8 842,65.6 840.5,65.6 C837.3,65.6 834.6,66.2 832.2,67.5 C829.9,68.8 828,70.4 826.5,72.4 C825,74.4 823.9,76.7 823.2,79.2 C822.5,81.7 822.1,84.3 822.1,86.8 C822.1,89.6 822.5,92.3 823.4,94.9 C824.2,97.5 825.5,99.8 827,101.7 C828.6,103.7 830.6,105.3 832.9,106.4 C835.2,107.6 837.8,108.2 840.7,108.2 C842.2,108.2 843.8,108 845.4,107.7 C847,107.4 848.5,106.8 850,106 C851.5,105.2 852.8,104.2 854,102.9 C855.2,101.6 856.1,100.1 856.8,98.3 L874.9,109.1 C873.7,112.1 871.8,114.7 869.4,117.1 C866.9,119.5 864.1,121.4 861,123 C857.8,124.6 854.5,125.8 850.9,126.6 C847.3,127.4 843.8,127.9 840.4,127.9 C834.4,127.9 828.9,126.7 823.9,124.3 C818.9,121.9 814.6,118.7 811,114.8 C807.4,110.8 804.6,106.4 802.6,101.3 C800.6,96.4 799.6,91.4 799.6,86.2 L799.6,86.2 Z" id="Shape" sketch:type="MSShapeGroup"></path>
            <path d="M444.4,95.4 L444.4,78.6 L467,78.6 L467,95.4 L444.4,95.4 L444.4,95.4 Z" id="Shape" sketch:type="MSShapeGroup"></path>
        </g>
    </g>
</svg>