<?xml version="1.0" encoding="utf-8"?>
<!-- Generator: Adobe Illustrator 21.0.0, SVG Export Plug-In . SVG Version: 6.00 Build 0)  -->
<svg version="1.1" id="Calque_1" xmlns="http://www.w3.org/2000/svg" xmlns:xlink="http://www.w3.org/1999/xlink" x="0px" y="0px"
	 viewBox="0 0 45 45" style="enable-background:new 0 0 45 45;" xml:space="preserve">
<style type="text/css">
	.st0{fill:none;stroke:#3D2828;stroke-width:0.75;stroke-linecap:round;stroke-linejoin:round;stroke-miterlimit:10;}
	.st1{fill:#17B7EC;}
	.st2{fill:none;stroke:#17B7EC;stroke-width:1.5;stroke-miterlimit:10;}
	.st3{fill:none;stroke:#17B7EC;stroke-miterlimit:10;}
</style>
<path class="st0" d="M19.1,34.3"/>
<path class="st1" d="M19.5,12h0.3c0.6,0,1.1,0.5,1.1,1.1v5.3c0,0.6-0.5,1.1-1.1,1.1h-0.3c-0.6,0-1.1-0.5-1.1-1.1v-5.3
	C18.4,12.5,18.9,12,19.5,12z M24.7,17.1c0,1,0,1,0.2,1.9c0.1,0.4-0.5,0.5-0.9,0.5h-0.3c-0.6,0-1.1-0.5-1.1-1.1v-5.3
	c0-0.6,0.5-1.1,1.1-1.1h0.3c0.6,0,1.1,0.5,1.1,1.1v3.3C24.7,16.6,24.7,17.1,24.7,17.1z M26.6,3.9c0-0.6,0.5-1.1,1.1-1.1H28
	c0.6,0,1.1,0.5,1.1,1.1v11.5h-2.5v-2.2L26.6,3.9z M19.6,33c-3.1-1.6-5.2-4.8-5.2-8.5V7c0-0.6,0.5-1.1,1.1-1.1h0.3
	c0.6,0,1.1,0.5,1.1,1.1v11.5c0,1.5,1.2,2.6,2.6,2.6h0.3c0.7,0,1.4-0.3,1.9-0.8c0.5,0.5,1.1,0.8,1.9,0.8h0.3c0.8,0,1.5-0.4,2-1
	c0.9,0.7,2.1,1.1,3.3,1.1h0.1v0.7c-0.9,0.2-1.8,0.7-2.6,1.4c-1.1,1.1-1.7,2.5-1.7,4c0,0.4,0.3,0.8,0.8,0.8s0.8-0.3,0.8-0.8
	c0-1.4,0.7-2.4,1.3-2.9c0.7-0.7,1.6-1,2.3-1h0.7v-3.7h-1.6c-1.4,0-2.4-0.7-2.9-1.3c-1.1-1.8,3.6-1.5,3.6-1.5c1.5,0,2.5,0.4,3.1,1.2
	c0.4,0.6,0.4,1.2,0.4,1.2v5.2h0c0,3.2-1.7,6.2-4.2,7.9c-1.5,1,1,1,1,1c2.6-2,4.6-5.3,4.6-8.9v-5.2c0-0.1,0-1.1-0.7-2
	c-0.9-1.3-2.4-1.8-3.6-1.9V3.9c0-1.5-1.2-2.6-2.6-2.6h-0.3c-1.5,0-2.6,1.2-2.6,2.6v6.9c-0.3-0.2-0.7-0.2-1.1-0.2h-0.3
	c-0.7,0-1.4,0.3-1.9,0.8c-0.5-0.5-1.1-0.8-1.9-0.8h-0.3c-0.4,0-0.8,0.1-1.1,0.2V7c0-1.5-1.2-2.6-2.6-2.6h-0.3
	c-1.5,0-2.6,1.2-2.6,2.6v17.6c0,0,0,0,0,0c0.1,4.5,2.8,8.5,6.8,10C21.1,34.9,19.6,33,19.6,33z"/>
<path class="st2" d="M29.7,32.9c-1.3,1.3-2,4.1-2,6.9V43"/>
<path class="st2" d="M17.3,32.6v9.5"/>
<path class="st3" d="M29.9,4.8c7.9,2.5,13.5,9.9,13.5,18.6c0,10.8-8.8,19.6-19.6,19.6S4.3,34.2,4.3,23.4c0-6.9,3.6-13,8.9-16.4"/>
<path class="st3" d="M16.9,5.1c2.2-0.8,4.5-1.3,7-1.3c0.6,0,1.3,0,1.9,0.1"/>
</svg>
