<?xml version="1.0" encoding="utf-8"?>
<!-- Generator: Adobe Illustrator 16.0.0, SVG Export Plug-In . SVG Version: 6.00 Build 0)  -->
<!DOCTYPE svg PUBLIC "-//W3C//DTD SVG 1.1//EN" "http://www.w3.org/Graphics/SVG/1.1/DTD/svg11.dtd">
<svg version="1.1" id="Calque_1" xmlns="http://www.w3.org/2000/svg" xmlns:xlink="http://www.w3.org/1999/xlink" x="0px" y="0px"
	 width="485.413px" height="453.179px" viewBox="54.349 119.563 485.413 453.179"
	 enable-background="new 54.349 119.563 485.413 453.179" xml:space="preserve">
<title>Artboard 18</title>
<path fill="#FFFFFF" d="M269.9,531.072c18.069-0.032,32.707-14.672,32.74-32.74V172.416c-0.033-18.068-14.671-32.708-32.74-32.74
	H87.089c-18.068,0.032-32.708,14.672-32.74,32.74v325.916c0.033,18.068,14.672,32.708,32.74,32.74H269.9z M72.208,172.416
	c0-8.22,6.663-14.882,14.882-14.882H269.9c8.219,0,14.882,6.662,14.882,14.882v38.693H72.208V172.416z M72.208,228.968h212.575
	v214.301H72.208V228.968z M72.208,498.332v-37.205h212.575v37.205c0,8.219-6.663,14.882-14.882,14.882H87.089
	C78.871,513.214,72.208,506.551,72.208,498.332z"/>
<circle fill="#FFFFFF" cx="178.524" cy="184.322" r="8.929"/>
<path fill="#FFFFFF" d="M155.606,494.403h45.777c4.932,0,8.929-3.998,8.929-8.93s-3.998-8.929-8.929-8.929h-45.777
	c-4.932,0-8.929,3.997-8.929,8.929S150.675,494.403,155.606,494.403z"/>
<path fill="#FFFFFF" d="M160.726,563.812c0,4.932,3.998,8.93,8.929,8.93h337.763c18.068-0.033,32.707-14.672,32.74-32.74V357.19
	c-0.033-18.068-14.672-32.707-32.74-32.74H348.179c-4.932,0-8.93,3.998-8.93,8.93s3.998,8.929,8.93,8.929h102.686v212.575h-281.27
	C164.687,554.916,160.726,558.904,160.726,563.812z M468.724,342.308h38.693c8.219,0,14.881,6.663,14.881,14.882v182.812
	c0,8.219-6.662,14.882-14.881,14.882h-38.693V342.308z"/>
<circle fill="#FFFFFF" cx="495.511" cy="448.567" r="8.929"/>
<path fill="#FFFFFF" d="M362.705,122.174c-3.486-3.481-9.135-3.481-12.621,0l-20.061,20.121c-3.48,3.486-3.48,9.134,0,12.62
	l20.121,20.12c3.607,3.361,9.258,3.162,12.619-0.445c3.195-3.43,3.195-8.745,0-12.175l-4.404-4.405
	c47.916,4.404,85.174,43.596,87.148,91.674l-5-4.703c-3.607-3.362-9.258-3.162-12.619,0.445c-3.195,3.43-3.195,8.745,0,12.175
	l20.119,20.12c3.486,3.482,9.135,3.482,12.621,0l20.119-20.061c3.363-3.608,3.164-9.258-0.445-12.62
	c-3.428-3.195-8.744-3.195-12.174,0l-5,5c-1.836-58.313-47.469-105.797-105.662-109.948l5.238-5.238
	c3.502-3.473,3.523-9.126,0.051-12.628C362.74,122.209,362.722,122.191,362.705,122.174z"/>
</svg>
