<?xml version="1.0" encoding="utf-8"?>
<!-- Generator: Adobe Illustrator 21.0.0, SVG Export Plug-In . SVG Version: 6.00 Build 0)  -->
<svg version="1.1" id="Calque_1" xmlns="http://www.w3.org/2000/svg" xmlns:xlink="http://www.w3.org/1999/xlink" x="0px" y="0px"
	 viewBox="0 0 27.2 68.5" style="enable-background:new 0 0 27.2 68.5;" xml:space="preserve">
<style type="text/css">
	.st0{fill:#FFFFFF;}
</style>
<path class="st0" d="M13.9,4.8C7.8,4.8,2.7,9.8,2.7,16v11.2c0,6.2,5,11.2,11.2,11.2s11.2-5,11.2-11.2V16C25.1,9.8,20.1,4.8,13.9,4.8
	z M23.9,27.2c0,5.5-4.5,10-10,9.9c-5.5,0-9.9-4.5-9.9-9.9V16c0-5.5,4.5-10,10-9.9c5.5,0,9.9,4.5,9.9,9.9V27.2L23.9,27.2z M13.9,10.5
	c-0.3,0-0.6,0.3-0.6,0.6c0,0,0,0,0,0v5.6c0,0.3,0.3,0.6,0.6,0.6s0.6-0.3,0.6-0.6l0,0v-5.6C14.6,10.8,14.3,10.5,13.9,10.5
	C13.9,10.5,13.9,10.5,13.9,10.5z"/>
<path class="st0" d="M13.9,47.7c0.7,0,1.2,0.5,1.2,1.2c0,0.7-0.5,1.2-1.2,1.2c-0.7,0-1.2-0.5-1.2-1.2S13.3,47.7,13.9,47.7L13.9,47.7
	z M13.9,54.8c0.7,0,1.2,0.5,1.2,1.2s-0.5,1.2-1.2,1.2c-0.7,0-1.2-0.5-1.2-1.2C12.8,55.3,13.3,54.8,13.9,54.8
	C13.9,54.8,13.9,54.8,13.9,54.8z M13.9,61.8c0.7,0,1.2,0.5,1.2,1.2s-0.5,1.2-1.2,1.2c-0.7,0-1.2-0.5-1.2-1.2c0,0,0,0,0,0
	C12.8,62.3,13.3,61.8,13.9,61.8C13.9,61.8,13.9,61.8,13.9,61.8L13.9,61.8z"/>
</svg>
