<?xml version="1.0" encoding="utf-8"?>
<!-- Generator: Adobe Illustrator 19.2.1, SVG Export Plug-In . SVG Version: 6.00 Build 0)  -->
<svg version="1.1" id="Calque_1" xmlns="http://www.w3.org/2000/svg" xmlns:xlink="http://www.w3.org/1999/xlink" x="0px" y="0px"
	 viewBox="0 0 45 45" style="enable-background:new 0 0 45 45;" xml:space="preserve">
<style type="text/css">
	.st0{fill:#FFFFFF;}
</style>
<path id="PICTO_share" class="st0" d="M25.6,24.9c-0.9,0-1.8,0.4-2.4,1.2l-4.6-2.6c0.1-0.3,0.2-0.7,0.2-1s-0.1-0.7-0.2-1l4.6-2.6
	c1,1.3,2.9,1.6,4.2,0.5s1.6-2.9,0.5-4.2c-1-1.3-2.9-1.6-4.2-0.5c-0.7,0.6-1.2,1.5-1.2,2.4c0,0.3,0.1,0.7,0.2,1l-4.6,2.6
	c-1-1.3-2.9-1.6-4.2-0.6s-1.6,2.9-0.6,4.2s2.9,1.6,4.2,0.6c0.2-0.2,0.4-0.4,0.6-0.6l4.6,2.6c-0.6,1.6,0.3,3.3,1.8,3.8
	s3.3-0.3,3.8-1.8s-0.3-3.3-1.8-3.8C26.3,25,26,24.9,25.6,24.9z M25.6,15.1c1.1,0,2.1,0.9,2.1,2.1c0,1.1-0.9,2.1-2.1,2.1
	c-1.1,0-2.1-0.9-2.1-2.1l0,0C23.6,16,24.5,15.1,25.6,15.1z M15.8,24.6c-1.1,0-2.1-0.9-2.1-2.1c0-1.1,0.9-2.1,2.1-2.1
	c1.1,0,2.1,0.9,2.1,2.1l0,0C17.9,23.6,16.9,24.6,15.8,24.6L15.8,24.6z M25.6,30c-1.1,0-2.1-0.9-2.1-2.1c0-1.1,0.9-2.1,2.1-2.1
	c1.1,0,2.1,0.9,2.1,2.1l0,0C27.7,29,26.8,30,25.6,30L25.6,30z"/>
</svg>
