<svg xmlns="http://www.w3.org/2000/svg" width="11.062" height="11.75" viewBox="0 0 11.062 11.75">
  <metadata><?xpacket begin="﻿" id="W5M0MpCehiHzreSzNTczkc9d"?>
<x:xmpmeta xmlns:x="adobe:ns:meta/" x:xmptk="Adobe XMP Core 5.6-c138 79.159824, 2016/09/14-01:09:01        ">
   <rdf:RDF xmlns:rdf="http://www.w3.org/1999/02/22-rdf-syntax-ns#">
      <rdf:Description rdf:about=""/>
   </rdf:RDF>
</x:xmpmeta>
                                                                                                    
                                                                                                    
                                                                                                    
                                                                                                    
                                                                                                    
                                                                                                    
                                                                                                    
                                                                                                    
                                                                                                    
                                                                                                    
                                                                                                    
                                                                                                    
                                                                                                    
                                                                                                    
                                                                                                    
                                                                                                    
                                                                                                    
                                                                                                    
                                                                                                    
                                                                                                    
                           
<?xpacket end="w"?></metadata>
<defs>
    <style>
      .cls-1 {
        fill: #fff;
        fill-rule: evenodd;
      }
    </style>
  </defs>
  <path id="PICTO_share" data-name="PICTO share" class="cls-1" d="M665.437,685.675a2.1,2.1,0,0,0-1.665.821l-3.229-1.8A2.127,2.127,0,0,0,660.66,684a2.06,2.06,0,0,0-.12-0.7l3.228-1.8a2.1,2.1,0,1,0-.435-1.278,2.028,2.028,0,0,0,.12.7l-3.225,1.8a2.1,2.1,0,1,0,0,2.552l3.228,1.8A2.1,2.1,0,1,0,665.437,685.675Zm0-6.893A1.443,1.443,0,1,1,664,680.225,1.444,1.444,0,0,1,665.437,678.782Zm-6.874,6.659A1.444,1.444,0,1,1,660.005,684,1.444,1.444,0,0,1,658.563,685.441Zm6.874,3.777a1.443,1.443,0,1,1,1.443-1.443A1.444,1.444,0,0,1,665.437,689.218Z" transform="translate(-656.469 -678.125)"/>
</svg>
