<?xml version="1.0" encoding="utf-8"?>
<!-- Generator: Adobe Illustrator 21.0.0, SVG Export Plug-In . SVG Version: 6.00 Build 0)  -->
<svg version="1.1" id="Calque_1" xmlns="http://www.w3.org/2000/svg" xmlns:xlink="http://www.w3.org/1999/xlink" x="0px" y="0px"
	 viewBox="0 0 67.5 72" style="enable-background:new 0 0 67.5 72;" xml:space="preserve">
<style type="text/css">
	.st0{fill:none;stroke:#FFFFFF;stroke-width:0.7;stroke-miterlimit:10;}
</style>
<g>
	<path class="st0" d="M27.6,52.2l-3.7-5.5c0,0-1.1-2-1.4-3.2c-0.3-1.3-0.6-2.8-1.4-4c-0.8-1.2-2.2-3.6-0.4-4.7
		c1.8-1.2,2.6,0.3,2.9,0.9c0.3,0.6,2.7,4.1,2.7,4.1l-0.2-15.6c0,0,0.3-1.7,2.1-1.7s2,1.6,2,1.6l0.1,7.1l0.1,4.8"/>
	<path class="st0" d="M30.3,31.1c0,0,1.9-1.1,3.5,0c0.7,0.5,0.5,4.6,0.5,4.6"/>
	<path class="st0" d="M34.3,32.5c0,0-0.1-0.6,2.1-0.6c2.2,0,1.8,5.1,1.8,5.1"/>
	<path class="st0" d="M38.1,34c0,0,1.8-1.7,3.9-0.2c0.9,0.6,0.5,6.3,0.5,6.3s-0.5,5.3-1.4,7.3c-0.9,2-1.1,4.8-1.1,4.8"/>
	<g>
		<polyline class="st0" points="15.5,19.4 12.9,22.3 15.4,25.1 		"/>
		<line class="st0" x1="12.9" y1="22.3" x2="23.5" y2="22.3"/>
	</g>
	<g>
		<polyline class="st0" points="40.8,19.4 43.4,22.3 40.9,25.1 		"/>
		<line class="st0" x1="43.4" y1="22.3" x2="32.8" y2="22.3"/>
	</g>
</g>
</svg>
