<svg xmlns="http://www.w3.org/2000/svg" width="23.906" height="18.5" viewBox="0 0 23.906 18.5">
  <metadata><?xpacket begin="﻿" id="W5M0MpCehiHzreSzNTczkc9d"?>
<x:xmpmeta xmlns:x="adobe:ns:meta/" x:xmptk="Adobe XMP Core 5.6-c138 79.159824, 2016/09/14-01:09:01        ">
   <rdf:RDF xmlns:rdf="http://www.w3.org/1999/02/22-rdf-syntax-ns#">
      <rdf:Description rdf:about=""/>
   </rdf:RDF>
</x:xmpmeta>
                                                                                                    
                                                                                                    
                                                                                                    
                                                                                                    
                                                                                                    
                                                                                                    
                                                                                                    
                                                                                                    
                                                                                                    
                                                                                                    
                                                                                                    
                                                                                                    
                                                                                                    
                                                                                                    
                                                                                                    
                                                                                                    
                                                                                                    
                                                                                                    
                                                                                                    
                                                                                                    
                           
<?xpacket end="w"?></metadata>
<defs>
    <style>
      .cls-1 {
        fill: #fff;
        fill-rule: evenodd;
      }
    </style>
  </defs>
  <path id="PICTO_twitter" data-name="PICTO twitter" class="cls-1" d="M700.151,690.667a10.175,10.175,0,0,1-2.816.735,4.733,4.733,0,0,0,2.155-2.582,10.129,10.129,0,0,1-3.113,1.133,5.015,5.015,0,0,0-3.579-1.473,4.731,4.731,0,0,0-4.775,5.728,14.163,14.163,0,0,1-10.106-4.875,4.537,4.537,0,0,0,1.517,6.229,5.076,5.076,0,0,1-2.22-.583,4.73,4.73,0,0,0,3.932,4.635,5.177,5.177,0,0,1-2.214.078,4.882,4.882,0,0,0,4.58,3.241,10.214,10.214,0,0,1-7.259,1.932,14.394,14.394,0,0,0,7.516,2.1,13.489,13.489,0,0,0,13.935-13.88A9.736,9.736,0,0,0,700.151,690.667Z" transform="translate(-676.25 -688.469)"/>
</svg>
