<?xml version="1.0" encoding="utf-8"?>
<!-- Generator: Adobe Illustrator 19.2.1, SVG Export Plug-In . SVG Version: 6.00 Build 0)  -->
<svg version="1.1" id="Calque_1" xmlns="http://www.w3.org/2000/svg" xmlns:xlink="http://www.w3.org/1999/xlink" x="0px" y="0px"
	 viewBox="0 0 23.9 18.5" style="enable-background:new 0 0 23.9 18.5;" xml:space="preserve">
<style type="text/css">
	.st0{fill:#17B7EC;}
</style>
<path id="PICTO_twitter" class="st0" d="M23.9,2.2c-0.9,0.4-1.8,0.6-2.8,0.7c1-0.6,1.8-1.5,2.2-2.6c-1,0.5-2,0.9-3.1,1.1
	c-0.9-1-2.2-1.5-3.6-1.5c-2.6-0.1-4.8,2-4.9,4.6c0,0.4,0,0.8,0.1,1.2C7.9,5.6,4.2,3.8,1.7,0.9C0.4,3,1,5.8,3.2,7.1
	C2.4,7.1,1.6,6.9,1,6.5c0,2.3,1.7,4.2,3.9,4.6c-0.7,0.2-1.5,0.2-2.2,0.1c0.7,1.9,2.5,3.2,4.6,3.2C5.2,16,2.6,16.7,0,16.4
	c2.3,1.4,4.9,2.1,7.5,2.1c7.4,0.2,13.7-5.6,13.9-13c0-0.3,0-0.6,0-0.9C22.4,4,23.2,3.1,23.9,2.2z"/>
</svg>
