<?xml version="1.0" encoding="utf-8"?>
<!-- Generator: Adobe Illustrator 21.0.0, SVG Export Plug-In . SVG Version: 6.00 Build 0)  -->
<svg version="1.1" id="Calque_1" xmlns="http://www.w3.org/2000/svg" xmlns:xlink="http://www.w3.org/1999/xlink" x="0px" y="0px"
	 viewBox="0 0 100 100" style="enable-background:new 0 0 100 100;" xml:space="preserve">
<style type="text/css">
	.st0{fill:#FFFFFF;}
	.st1{fill:#17B7EC;}
</style>
<g>
	<path class="st0" d="M20,23.7l6.3,1.8l-6.3,20.9c-0.6,1.9-0.8,3.2-0.7,3.8c0.1,0.7,0.6,1.1,1.4,1.3c0.8,0.2,1.4,0.1,1.9-0.4
		c0.5-0.5,1-1.7,1.6-3.6l6.3-20.9l6.3,1.8l-5.9,19.6c-1.2,4-2.7,6.6-4.3,7.7c-1.7,1.2-4.1,1.3-7.2,0.4c-3.1-0.9-5.1-2.3-5.8-4.1
		c-0.8-1.8-0.5-4.8,0.7-8.8L20,23.7z"/>
	<path class="st0" d="M40.9,29.7l13.8,4L53,39.2L38.4,56.9l8.5,2.4l-1.3,4.3l-14.5-4.2l1.8-5.9l14.4-17.5L39.6,34L40.9,29.7z"/>
	<path class="st1" d="M60.8,29.2H66L52,75.5l-5.2,0L60.8,29.2z"/>
	<g>
		<path class="st0" d="M58.9,67.4l2.3-7.6l2.9,0.8l-1.2,3.8l4.8,1.4l1.1-3.6l2.9,0.8l-1.1,3.6l8,2.3l-1.1,3.7L58.9,67.4z"/>
		<path class="st0" d="M61.7,57.9l1.1-3.7L76,58c1.2,0.3,2,0.5,2.4,0.4c0.4-0.1,0.7-0.3,0.8-0.8c0.1-0.5,0.1-0.8-0.3-1.1
			c-0.3-0.3-1-0.6-2.2-0.9l-13.1-3.8l1.1-3.7L77,51.5c2.5,0.7,4.1,1.6,4.8,2.6c0.7,1,0.8,2.4,0.2,4.3c-0.6,1.9-1.4,3-2.6,3.5
			c-1.2,0.5-3,0.3-5.5-0.4L61.7,57.9z"/>
		<path class="st0" d="M65.5,45.4l1.1-3.7l15.7,4.5l1.3-4.3l2.8,0.8l-2.4,8L65.5,45.4z"/>
	</g>
</g>
</svg>
